<svg xmlns="http://www.w3.org/2000/svg" width="288" height="288"><svg xmlns="http://www.w3.org/2000/svg" width="288" height="288" viewBox="0 0 73.5 64.87"><g class="color000 svgShape" data-name="Layer 2"><path fill="#3b82f6" d="M68.5 18.87h-57v41a5 5 0 0 0 5 5h52a5 5 0 0 0 5-5v-36a5 5 0 0 0-5-5z" class="colorb76a8a svgShape" opacity=".15"/><rect width="62" height="46" x="2.5" y="9.87" fill="none" stroke="#214e96" stroke-miterlimit="10" stroke-width="5" class="colorStroke6a80b9 svgStroke" rx="2" ry="2"/><path fill="none" stroke="#214e96" stroke-miterlimit="10" stroke-width="3" d="M46.18 6.43c1.13 1.89.25 3.43-1.95 3.43H22.77c-2.2 0-3.08-1.54-1.95-3.43l.9-1.5a7.84 7.84 0 0 1 6.05-3.43h11.46a7.84 7.84 0 0 1 6.05 3.43z" class="colorStroke6a80b9 svgStroke"/><path fill="none" stroke="#214e96" stroke-miterlimit="10" stroke-width="2" d="M2.5 30.15h62" class="colorStroke6a80b9 svgStroke"/><path fill="#214e96" d="M28.5 26.8h10v6.7h-10z" class="color6a80b9 svgShape"/></g></svg></svg>