<svg xmlns="http://www.w3.org/2000/svg" width="64" height="64" fill="none"><path fill="#445CDA" fill-rule="evenodd" d="M17.286 8h3.428c1.202 0 2.172 0 2.962.054.811.055 1.529.172 2.209.453a6.667 6.667 0 0 1 3.607 3.608c.282.68.399 1.398.454 2.21.054.789.054 1.759.054 2.961v3.428c0 1.202 0 2.172-.054 2.962-.055.811-.172 1.529-.454 2.209a6.666 6.666 0 0 1-3.607 3.607c-.68.282-1.398.399-2.21.454-.789.054-1.759.054-2.961.054h-3.428c-1.202 0-2.172 0-2.962-.054-.811-.055-1.529-.172-2.209-.454a6.667 6.667 0 0 1-3.608-3.607c-.281-.68-.398-1.398-.453-2.21C8 22.887 8 21.917 8 20.715v-3.428c0-1.202 0-2.172.054-2.962.055-.811.172-1.529.453-2.209a6.667 6.667 0 0 1 3.608-3.608c.68-.281 1.398-.398 2.21-.453C15.113 8 16.083 8 17.285 8Zm-2.78 2.714c-.676.046-1.07.133-1.37.257a4 4 0 0 0-2.165 2.165c-.124.3-.21.694-.257 1.37-.047.688-.047 1.567-.047 2.827v3.334c0 1.26 0 2.14.047 2.827.046.676.133 1.07.257 1.37a4 4 0 0 0 2.165 2.165c.3.124.694.21 1.37.257.688.047 1.567.047 2.827.047h3.334c1.26 0 2.14 0 2.827-.047.676-.046 1.07-.133 1.37-.257a4 4 0 0 0 2.165-2.165c.124-.3.21-.694.257-1.37.047-.688.047-1.567.047-2.827v-3.334c0-1.26 0-2.14-.047-2.827-.046-.676-.133-1.07-.257-1.37a4 4 0 0 0-2.165-2.165c-.3-.124-.694-.21-1.37-.257-.688-.047-1.567-.047-2.827-.047h-3.334c-1.26 0-2.14 0-2.827.047Z" clip-rule="evenodd"/><path fill="#2B3151" fill-rule="evenodd" d="M17.286 34h3.428c1.202 0 2.172 0 2.962.054.811.055 1.529.172 2.209.453a6.666 6.666 0 0 1 3.607 3.608c.282.68.399 1.398.454 2.21.054.789.054 1.759.054 2.961v3.428c0 1.202 0 2.172-.054 2.962-.055.811-.172 1.529-.454 2.209a6.666 6.666 0 0 1-3.607 3.608c-.68.281-1.398.398-2.21.453-.789.054-1.759.054-2.961.054h-3.428c-1.202 0-2.172 0-2.962-.054-.811-.055-1.529-.172-2.209-.453a6.667 6.667 0 0 1-3.608-3.608c-.281-.68-.398-1.398-.453-2.21C8 48.887 8 47.917 8 46.715v-3.428c0-1.202 0-2.172.054-2.962.055-.811.172-1.529.453-2.209a6.667 6.667 0 0 1 3.608-3.608c.68-.281 1.398-.398 2.21-.453C15.113 34 16.083 34 17.285 34zm-2.78 2.714c-.676.046-1.07.133-1.37.257a4 4 0 0 0-2.165 2.165c-.124.3-.21.694-.257 1.37-.047.688-.047 1.567-.047 2.827v3.334c0 1.26 0 2.14.047 2.827.046.676.133 1.07.257 1.37a4 4 0 0 0 2.165 2.165c.3.124.694.21 1.37.257.688.047 1.567.047 2.827.047h3.334c1.26 0 2.14 0 2.827-.047.676-.046 1.07-.133 1.37-.257a4 4 0 0 0 2.165-2.165c.124-.3.21-.694.257-1.37.047-.688.047-1.567.047-2.827v-3.334c0-1.26 0-2.14-.047-2.827-.046-.676-.133-1.07-.257-1.37a4 4 0 0 0-2.165-2.165c-.3-.124-.694-.21-1.37-.257-.688-.047-1.567-.047-2.827-.047h-3.334c-1.26 0-2.14 0-2.827.047zM43.286 8h3.428c1.202 0 2.172 0 2.962.054.811.055 1.529.172 2.209.453a6.667 6.667 0 0 1 3.608 3.608c.281.68.398 1.398.453 2.21.054.789.054 1.759.054 2.961v3.428c0 1.202 0 2.172-.054 2.962-.055.811-.172 1.529-.453 2.209a6.666 6.666 0 0 1-3.608 3.607c-.68.282-1.398.399-2.21.454-.789.054-1.759.054-2.961.054h-3.428c-1.202 0-2.172 0-2.962-.054-.811-.055-1.529-.172-2.209-.454a6.666 6.666 0 0 1-3.608-3.607c-.281-.68-.398-1.398-.453-2.21C34 22.887 34 21.917 34 20.715v-3.428c0-1.202 0-2.172.054-2.962.055-.811.172-1.529.453-2.209a6.667 6.667 0 0 1 3.608-3.608c.68-.281 1.398-.398 2.21-.453C41.113 8 42.083 8 43.285 8zm-2.78 2.714c-.676.046-1.07.133-1.37.257a4 4 0 0 0-2.165 2.165c-.124.3-.21.694-.257 1.37-.047.688-.047 1.567-.047 2.827v3.334c0 1.26 0 2.14.047 2.827.046.676.133 1.07.257 1.37a4 4 0 0 0 2.165 2.165c.3.124.694.21 1.37.257.688.047 1.567.047 2.827.047h3.334c1.26 0 2.14 0 2.827-.047.676-.046 1.07-.133 1.37-.257a4 4 0 0 0 2.165-2.165c.124-.3.21-.694.257-1.37.047-.688.047-1.567.047-2.827v-3.334c0-1.26 0-2.14-.047-2.827-.046-.676-.133-1.07-.257-1.37a4 4 0 0 0-2.165-2.165c-.3-.124-.694-.21-1.37-.257-.688-.047-1.567-.047-2.827-.047h-3.334c-1.26 0-2.14 0-2.827.047z" clip-rule="evenodd"/><path fill="#445CDA" fill-rule="evenodd" d="M43.286 34h3.428c1.202 0 2.172 0 2.962.054.811.055 1.529.172 2.209.453a6.666 6.666 0 0 1 3.608 3.608c.281.68.398 1.398.453 2.21.054.789.054 1.759.054 2.961v3.428c0 1.202 0 2.172-.054 2.962-.055.811-.172 1.529-.453 2.209a6.666 6.666 0 0 1-3.608 3.608c-.68.281-1.398.398-2.21.453-.789.054-1.759.054-2.961.054h-3.428c-1.202 0-2.172 0-2.962-.054-.811-.055-1.529-.172-2.209-.453a6.666 6.666 0 0 1-3.608-3.608c-.281-.68-.398-1.398-.453-2.21C34 48.887 34 47.917 34 46.715v-3.428c0-1.202 0-2.172.054-2.962.055-.811.172-1.529.453-2.209a6.666 6.666 0 0 1 3.608-3.608c.68-.281 1.398-.398 2.21-.453C41.113 34 42.083 34 43.285 34Zm-2.78 2.714c-.676.046-1.07.133-1.37.257a4 4 0 0 0-2.165 2.165c-.124.3-.21.694-.257 1.37-.047.688-.047 1.567-.047 2.827v3.334c0 1.26 0 2.14.047 2.827.046.676.133 1.07.257 1.37a4 4 0 0 0 2.165 2.165c.3.124.694.21 1.37.257.688.047 1.567.047 2.827.047h3.334c1.26 0 2.14 0 2.827-.047.676-.046 1.07-.133 1.37-.257a4 4 0 0 0 2.165-2.165c.124-.3.21-.694.257-1.37.047-.688.047-1.567.047-2.827v-3.334c0-1.26 0-2.14-.047-2.827-.046-.676-.133-1.07-.257-1.37a4 4 0 0 0-2.165-2.165c-.3-.124-.694-.21-1.37-.257-.688-.047-1.567-.047-2.827-.047h-3.334c-1.26 0-2.14 0-2.827.047Z" clip-rule="evenodd"/></svg>